<svg width="960" height="600" version="1.1" xmlns="http://www.w3.org/2000/svg"><g></g><g transform="translate(480,300)scale(1.327433705329895,1.327433705329895)"><text text-anchor="middle" transform="translate(-225,-25)rotate(-13.333333015441895)" style="font-size: 16px; font-family: Impact; fill: rgb(99, 121, 57);">Advanced-Encryption-Standard</text><text text-anchor="middle" transform="translate(81,58)rotate(-40)skewX(-3.1805546814635176e-15)scale(0.9999999999999999,0.9999999999999999)" style="font-size: 10px; font-family: Impact; fill: rgb(140, 162, 82);">Asymetric-Encryption</text><text text-anchor="middle" transform="translate(113,-19)rotate(-40)skewX(-3.1805546814635176e-15)scale(0.9999999999999999,0.9999999999999999)" style="font-size: 10px; font-family: Impact; fill: rgb(181, 207, 107);">Ceaser-Cipher</text><text text-anchor="middle" transform="translate(92,-146)rotate(-40)skewX(-3.1805546814635176e-15)scale(0.9999999999999999,0.9999999999999999)" style="font-size: 10px; font-family: Impact; fill: rgb(140, 162, 82);">Cipher</text><text text-anchor="middle" transform="translate(220,122)rotate(40)skewX(3.1805546814635176e-15)scale(0.9999999999999999,0.9999999999999999)" style="font-size: 10px; font-family: Impact; fill: rgb(206, 219, 156);">Columnar-Transposition-Cipher</text><text text-anchor="middle" transform="translate(-153,84)rotate(-40)skewX(-3.1805546814635176e-15)scale(0.9999999999999999,0.9999999999999999)" style="font-size: 10px; font-family: Impact; fill: rgb(206, 219, 156);">Computersecurity</text><text text-anchor="middle" transform="translate(18,-106)rotate(-40)skewX(-3.1805546814635176e-15)scale(0.9999999999999999,0.9999999999999999)" style="font-size: 16px; font-family: Impact; fill: rgb(140, 109, 49);">Cryptography</text><text text-anchor="middle" transform="translate(223,-30)rotate(40)skewX(3.1805546814635176e-15)scale(0.9999999999999999,0.9999999999999999)" style="font-size: 10px; font-family: Impact; fill: rgb(140, 109, 49);">Data-Encryption-Standard</text><text text-anchor="middle" transform="translate(-69,-148)rotate(-40)skewX(-3.1805546814635176e-15)scale(0.9999999999999999,0.9999999999999999)" style="font-size: 10px; font-family: Impact; fill: rgb(231, 186, 82);">Decryption</text><text text-anchor="middle" transform="translate(160,55)rotate(40)skewX(3.1805546814635176e-15)scale(0.9999999999999999,0.9999999999999999)" style="font-size: 22px; font-family: Impact; fill: rgb(189, 158, 57);">Defense-in-Depth</text><text text-anchor="middle" transform="translate(183,-11)rotate(40)skewX(3.1805546814635176e-15)scale(0.9999999999999999,0.9999999999999999)" style="font-size: 10px; font-family: Impact; fill: rgb(231, 186, 82);">Diffie-Hellman-Key-Exchange</text><text text-anchor="middle" transform="translate(-110,118)rotate(13.333333015441895)skewX(0)scale(1,1)" style="font-size: 10px; font-family: Impact; fill: rgb(173, 73, 74);">Encryption</text><text text-anchor="middle" transform="translate(-30,56)rotate(-13.333333015441895)" style="font-size: 16px; font-family: Impact; fill: rgb(214, 97, 107);">Enigma</text><text text-anchor="middle" transform="translate(-153,-136)rotate(13.333333015441895)skewX(0)scale(1,1)" style="font-size: 10px; font-family: Impact; fill: rgb(231, 203, 148);">Key-Exchange</text><text text-anchor="middle" transform="translate(-194,-74)rotate(13.333333015441895)" style="font-size: 10px; font-family: Impact; fill: rgb(132, 60, 57);">Modular-Exponentiation</text><text text-anchor="middle" transform="translate(-243,-42)rotate(-13.333333015441895)skewX(0)scale(1,1)" style="font-size: 16px; font-family: Impact; fill: rgb(173, 73, 74);">One-Way-Functions</text><text text-anchor="middle" transform="translate(-43,-123)rotate(-13.333333015441895)skewX(0)scale(1,1)" style="font-size: 10px; font-family: Impact; fill: rgb(214, 97, 107);">RSA-Encryption</text><text text-anchor="middle" transform="translate(-213,65)rotate(40)skewX(3.1805546814635176e-15)scale(0.9999999999999999,0.9999999999999999)" style="font-size: 16px; font-family: Impact; fill: rgb(231, 150, 156);">Shared-Key</text><text text-anchor="middle" transform="translate(63,-79)rotate(40)skewX(3.1805546814635176e-15)scale(0.9999999999999999,0.9999999999999999)" style="font-size: 10px; font-family: Impact; fill: rgb(123, 65, 115);">Substitution-Cipher</text><text text-anchor="middle" transform="translate(-243,81)rotate(13.333333015441895)" style="font-size: 10px; font-family: Impact; fill: rgb(165, 81, 148);">Symetric-Encryption</text><text text-anchor="middle" transform="translate(-156,31)rotate(-40)skewX(-3.1805546814635176e-15)scale(0.9999999999999999,0.9999999999999999)" style="font-size: 100px; font-family: Impact; fill: rgb(82, 84, 163);"></text><text text-anchor="middle" transform="translate(2,172)rotate(-40)skewX(-3.1805546814635176e-15)scale(0.9999999999999999,0.9999999999999999)" style="font-size: 22px; font-family: Impact; fill: rgb(107, 110, 207);">s20170592</text></g></svg>